{"title":"Mulholland.Drive.2001.720p.x264.aac.mp4.anoXmous","uid":6896763,"size":733995647,"categoryP":"video","categoryS":"hd___movies","magnet":"?xt=urn:btih:f725a88fbac1ba0492362ffbb395308130e4901f&amp;dn=Mulholland.Drive.2001.720p.x264.aac.mp4.anoXmous&amp;tr=udp%3A%2F%2Ftracker.openbittorrent.com%3A80&amp;tr=udp%3A%2F%2Fopen.demonii.com%3A1337&amp;tr=udp%3A%2F%2Ftracker.coppersurfer.tk%3A6969&amp;tr=udp%3A%2F%2Fexodus.desync.com%3A6969","seeders":91,"leechers":8,"uploader":"anoXmous","files":-1,"time":1324226772,"description":"Mulholland.Drive.2001.720p.x264.aac.mp4.anoXmous\n\nFormat                           : MPEG-4\nFormat profile                   : Base Media\nCodec ID                         : isom\nFile size                        : 700 MiB\nDuration                         : 2h 26mn\nOverall bit rate mode            : Variable\nOverall bit rate                 : 668 Kbps\nEncoded date                     : UTC 2011-12-06 01:31:53\nTagged date                      : UTC 2011-12-06 01:31:53\n\nVideo\nID                               : 1\nFormat                           : AVC\nFormat/Info                      : Advanced Video Codec\nFormat profile                   : &lt;a class=&quot;__cf_email__&quot; href=&quot;/cdn-cgi/l/email-protection&quot; data-cfemail=&quot;d79fbeb0bf979be3f9e6&quot;&gt;[email&amp;#160;protected]&lt;/a&gt;&lt;script cf-hash='f9e31' type=&quot;text/javascript&quot;&gt;\n/* &lt;![CDATA[ */!function(){try{var t=&quot;currentScript&quot;in document?document.currentScript:function(){for(var t=document.getElementsByTagName(&quot;script&quot;),e=t.length;e--;)if(t[e].getAttribute(&quot;cf-hash&quot;))return t[e]}();if(t&amp;&amp;t.previousSibling){var e,r,n,i,c=t.previousSibling,a=c.getAttribute(&quot;data-cfemail&quot;);if(a){for(e=&quot;&quot;,r=parseInt(a.substr(0,2),16),n=2;a.length-n;n+=2)i=parseInt(a.substr(n,2),16)^r,e+=String.fromCharCode(i);e=document.createTextNode(e),c.parentNode.replaceChild(e,c)}}}catch(u){}}();/* ]]&gt; */&lt;/script&gt;\nFormat settings, CABAC           : Yes\nFormat settings, ReFrames        : 4 frames\nCodec ID                         : avc1\nCodec ID/Info                    : Advanced Video Coding\nDuration                         : 2h 26mn\nBit rate                         : 597 Kbps\nMaximum bit rate                 : 4 043 Kbps\nWidth                            : 1 278 pixels\nHeight                           : 688 pixels\nDisplay aspect ratio             : 1.850\nFrame rate mode                  : Constant\nFrame rate                       : 23.976 fps\nColor space                      : YUV\nChroma subsampling               : 4:2:0\nBit depth                        : 8 bits\nScan type                        : Progressive\nBits/(Pixel*Frame)               : 0.028\nStream size                      : 626 MiB (89%)\nWriting library                  : x264 core 119 r2106 07efeb4\n\n\nAudio\nID                               : 2\nFormat                           : AAC\nFormat/Info                      : Advanced Audio Codec\nFormat profile                   : LC\nCodec ID                         : 40\nDuration                         : 2h 26mn\nBit rate mode                    : Variable\nBit rate                         : 67.6 Kbps\nMaximum bit rate                 : 92.9 Kbps\nChannel(s)                       : 2 channels\nChannel positions                : Front: L R\nSampling rate                    : 48.0 KHz \nCompression mode                 : Lossy\nStream size                      : 70.9 MiB (10%)\nLanguage                         : English\n\n                              SUB:\nMulholland.Drive.2001.720p.x264.aac.mp4.anoXmous_swe.srt\n &lt;a href=&quot;\nhttp://www.imdb.com/title/tt0166924/&quot; rel=&quot;nofollow&quot; target=&quot;_NEW&quot;&gt;\nhttp://www.imdb.com/title/tt0166924/&lt;/a&gt;\n\n+++++++++ This work very fine with PSP and XBOX :) +++++++++++\t\n","torrent":{"xt":"urn:btih:f725a88fbac1ba0492362ffbb395308130e4901f","amp;dn":"Mulholland.Drive.2001.720p.x264.aac.mp4.anoXmous","amp;tr":["udp%3A%2F%2Ftracker.openbittorrent.com%3A80","udp%3A%2F%2Fopen.demonii.com%3A1337","udp%3A%2F%2Ftracker.coppersurfer.tk%3A6969","udp%3A%2F%2Fexodus.desync.com%3A6969"],"infoHash":"f725a88fbac1ba0492362ffbb395308130e4901f","infoHashBuffer":{"type":"Buffer","data":[247,37,168,143,186,193,186,4,146,54,47,251,179,149,48,129,48,228,144,31]},"announce":[],"urlList":[]}}